HIERARCHY
ROOT root
{
	OFFSET	0	13.1	24.9
	CHANNELS 6  Xposition Yposition Zposition Xrotation Yrotation Zrotation
	JOINT spine_1
	{
		OFFSET	0	9.99999	0
		CHANNELS 3  Xrotation Yrotation Zrotation
		JOINT spine_2
		{
			OFFSET	0	112	-10
			CHANNELS 3  Xrotation Yrotation Zrotation
			JOINT spine_3
			{
				OFFSET	0	206.5	19.3
				CHANNELS 3  Xrotation Yrotation Zrotation
				JOINT spine_4
				{
					OFFSET	0	110.4	14.6
					CHANNELS 3  Xrotation Yrotation Zrotation
					JOINT neck_1
					{
						OFFSET	0	71.8	-50.3
						CHANNELS 3  Xrotation Yrotation Zrotation
						JOINT neck_2
						{
							OFFSET	0	86.2	-25.8
							CHANNELS 3  Xrotation Yrotation Zrotation
							JOINT head_ee
							{
								OFFSET	0	179.8	-8.7
								CHANNELS 3  Xrotation Yrotation Zrotation
								End Site
								{
									OFFSET	1	0	0
								}
							}
						}
					}
					JOINT left_clavicle
					{
						OFFSET	-43.2	22.4	-70.8
						CHANNELS 3  Xrotation Yrotation Zrotation
						JOINT left_shoulder
						{
							OFFSET	-93.9	-5.79999	48.7
							CHANNELS 3  Xrotation Yrotation Zrotation
							JOINT left_elbow
							{
								OFFSET	-291.4	-30.8	15.2
								CHANNELS 3  Xrotation Yrotation Zrotation
								JOINT left_lowarm_twist
								{
									OFFSET	-110.7	-3.89999	13.6
									CHANNELS 3  Xrotation Yrotation Zrotation
									JOINT left_hand
									{
										OFFSET	-110.7	-3.89999	13.6
										CHANNELS 3  Xrotation Yrotation Zrotation
										JOINT left_ee
										{
											OFFSET	-80.8	-5.10001	12.1
											CHANNELS 3  Xrotation Yrotation Zrotation
											End Site
											{
												OFFSET	1	0	0
											}
										}
									}
								}
							}
						}
					}
					JOINT right_clavicle
					{
						OFFSET	43.2	22.4	-70.8
						CHANNELS 3  Xrotation Yrotation Zrotation
						JOINT right_shoulder
						{
							OFFSET	93.9	-5.79999	48.7
							CHANNELS 3  Xrotation Yrotation Zrotation
							JOINT right_elbow
							{
								OFFSET	291.4	-30.8	15.2
								CHANNELS 3  Xrotation Yrotation Zrotation
								JOINT right_lowarm_twist
								{
									OFFSET	110.7	-3.89999	13.6
									CHANNELS 3  Xrotation Yrotation Zrotation
									JOINT right_hand
									{
										OFFSET	110.7	-3.89999	13.6
										CHANNELS 3  Xrotation Yrotation Zrotation
										JOINT right_ee
										{
											OFFSET	80.8	-5.10001	12.1
											CHANNELS 3  Xrotation Yrotation Zrotation
											End Site
											{
												OFFSET	1	0	0
											}
										}
									}
								}
							}
						}
					}
				}
			}
		}
	}
	JOINT left_hip
	{
		OFFSET	-82.8	-127.5	0.300001
		CHANNELS 3  Xrotation Yrotation Zrotation
		JOINT left_knee
		{
			OFFSET	-28.2	-396.7	2.2
			CHANNELS 3  Xrotation Yrotation Zrotation
			JOINT left_ankle
			{
				OFFSET	-11.7	-411.3	35.4
				CHANNELS 3  Xrotation Yrotation Zrotation
				JOINT left_toes
				{
					OFFSET	0	-60	-88.6
					CHANNELS 3  Xrotation Yrotation Zrotation
					JOINT left_foot_ee
					{
						OFFSET	-22.5	-16.5	-42.2
						CHANNELS 3  Xrotation Yrotation Zrotation
						End Site
						{
							OFFSET	1	0	0
						}
					}
				}
			}
		}
	}
	JOINT right_hip
	{
		OFFSET	82.8	-127.5	0.300001
		CHANNELS 3  Xrotation Yrotation Zrotation
		JOINT right_knee
		{
			OFFSET	28.2	-396.7	2.2
			CHANNELS 3  Xrotation Yrotation Zrotation
			JOINT right_ankle
			{
				OFFSET	11.7	-411.3	35.4
				CHANNELS 3  Xrotation Yrotation Zrotation
				JOINT right_toes
				{
					OFFSET	0	-60	-88.6
					CHANNELS 3  Xrotation Yrotation Zrotation
					JOINT right_foot_ee
					{
						OFFSET	22.5	-16.5	-42.2
						CHANNELS 3  Xrotation Yrotation Zrotation
						End Site
						{
							OFFSET	1	0	0
						}
					}
				}
			}
		}
	}
}
MOTION
Frames: 9
Frame Time: 0.02
4046.04 700.891 -217.087 -23.2997 31.5051 15.3396 7.45405 0.0376359 -1.51767 7.45532 0.134121 -1.5122 7.44992 0.257201 -1.49619 7.44679 0.0177064 -1.51803 -13.7424 9.82989 3.00228 -13.928 16.905 5.93983 -0.0 0.0 -0.0 4.15149 14.0426 8.42898 -19.5364 -15.6525 66.5147 1.53136 -37.181 0.515104 20.9989 0.255887 -2.65524 -0.742608 20.0036 3.63951 -0.0 0.0 -0.0 6.33005 -6.08551 -12.2636 50.586 -62.5596 -19.7978 0.190786 5.39912 -0.00899577 31.6294 -0.0131241 3.98955 5.2779 -14.2284 -43.2625 0.0 0.0 0.0 40.0608 50.2883 -26.9197 -12.5561 0.310054 1.89812 36.8217 -22.6529 -5.17293 -9.19168 0.0 0.0 -0.0 0.0 -0.0 34.0833 25.4515 -1.46162 -20.5438 -0.288777 -3.12252 18.2203 -11.4293 2.51429 2.79397 -0.0 -0.0 0.0 0.0 0.0 
4041.02 703.803 -215.753 -23.2795 31.6784 14.1807 7.37324 -0.000206627 -1.26859 7.37413 0.080511 -1.26603 7.37105 0.185363 -1.25498 7.36885 -0.0151467 -1.2685 -14.483 9.94227 2.70523 -14.7109 17.3716 5.81567 -0.0 0.0 -0.0 4.52901 15.6453 9.0522 -20.6533 -15.9512 65.713 1.61948 -38.7351 0.569312 21.2956 0.252489 -2.69299 -0.856353 21.4779 3.58544 -0.0 0.0 -0.0 6.44773 -4.49201 -12.5007 53.77 -62.829 -16.7426 0.191612 5.42235 -0.00907373 32.2659 0.00922161 4.06777 5.13231 -14.7669 -42.1115 0.0 0.0 0.0 35.686 52.2027 -22.5149 -8.96062 0.263935 1.34845 35.6446 -22.7871 -5.06004 -8.6029 0.0 0.0 -0.0 0.0 -0.0 32.9776 23.0062 1.35064 -19.9617 -0.296093 -3.03351 18.8832 -3.80715 2.59589 3.54147 -0.0 -0.0 0.0 0.0 0.0 
4045.19 696.804 -224.49 -21.7506 32.862 13.8667 6.81788 -0.00911717 -1.32117 6.81884 0.0749632 -1.31907 6.81585 0.196911 -1.30645 6.81346 -0.0118706 -1.32115 -13.4245 10.2456 2.32986 -13.6412 18.0809 5.3912 -0.0 0.0 -0.0 3.73098 15.0348 7.75866 -19.6609 -16.5077 66.3565 1.68329 -39.8199 0.609711 20.2138 0.263935 -2.55528 -0.464571 21.9359 6.06817 -0.0 0.0 -0.0 5.69849 -4.99078 -11.0905 53.8377 -64.8766 -18.9424 0.193862 5.48563 -0.00928752 32.921 0.0331279 4.14801 5.04226 -15.4832 -41.5071 0.0 0.0 0.0 34.7027 51.5601 -24.0744 -9.19966 0.268071 1.3849 37.0069 -25.1272 -5.31704 -7.82403 0.0 0.0 -0.0 0.0 -0.0 33.0095 20.6358 0.934457 -24.2068 -0.222029 -3.68056 24.1299 -2.56795 3.23777 6.38773 -0.0 -0.0 0.0 0.0 0.0 
4046.52 701.147 -222.98 -23.4709 33.0473 13.9165 7.04131 0.210694 -1.18157 7.04204 0.285448 -1.16577 7.03529 0.387966 -1.13578 7.03355 0.203736 -1.18279 -13.2202 10.3528 2.87787 -13.417 17.926 5.90838 -0.0 0.0 -0.0 3.95217 15.6598 8.12523 -20.5997 -17.5665 65.7516 1.62719 -38.868 0.574143 18.8332 0.274763 -2.37927 -0.681603 20.3126 4.13018 -0.0 0.0 -0.0 6.47814 -5.90753 -12.5417 53.2845 -63.6697 -18.6306 0.262941 7.42136 -0.0170529 34.9764 0.114072 4.39794 5.05691 -13.2789 -41.0588 0.0 0.0 0.0 28.0088 51.4565 -16.2438 -0.0411699 0.00169328 0.00609099 36.0021 -24.4247 -5.17747 -8.51198 0.0 0.0 -0.0 0.0 -0.0 32.6562 22.8208 1.68514 -20.6096 -0.287894 -3.13257 24.009 -8.60246 3.21671 5.74654 -0.0 -0.0 0.0 0.0 0.0 
4046.81 699.683 -228.311 -24.0034 34.5272 13.7679 6.96268 0.138487 -0.929793 6.96314 0.197369 -0.919098 6.95938 0.27947 -0.89755 6.95828 0.134218 -0.930419 -13.1756 10.7626 3.51823 -13.3686 18.3052 6.63478 -0.0 0.0 -0.0 3.01587 16.9737 6.67476 -20.0979 -19.2911 66.7262 1.65962 -39.4214 0.594616 17.5322 0.281083 -2.21322 -0.532073 18.5225 4.28866 -0.0 0.0 -0.0 6.80598 -5.76034 -13.1573 54.9939 -63.9781 -16.8621 0.260613 7.35637 -0.0167535 35.3772 0.130902 4.44634 4.85913 -13.0766 -39.3138 0.0 0.0 0.0 32.3193 50.6054 -16.9721 -2.9135 0.108947 0.433808 34.1423 -25.6283 -5.04294 -10.5702 0.0 0.0 -0.0 0.0 -0.0 33.2606 21.3251 2.7849 -23.3262 -0.241332 -3.5468 25.5239 -9.05009 3.39427 7.097 -0.0 -0.0 0.0 0.0 0.0 
4044.93 699.399 -233.4 -24.2569 35.5834 13.7422 6.72234 0.246595 -0.937636 6.72278 0.305757 -0.920046 6.71736 0.391265 -0.887067 6.71635 0.246265 -0.937722 -13.7813 10.6602 4.30316 -13.9612 17.6997 7.43863 -0.0 0.0 -0.0 3.16557 18.0918 6.94115 -20.5608 -21.1285 67.3856 1.58593 -38.1512 0.548453 16.6585 0.28321 -2.10165 -0.570176 17.1858 3.50718 -0.0 0.0 -0.0 7.0511 -5.84576 -13.6152 56.1314 -64.254 -16.475 0.331819 9.33463 -0.02709 36.3109 0.171415 4.55862 4.64774 -12.1542 -37.294 0.0 0.0 0.0 35.4453 49.3762 -17.9042 -6.53551 0.21339 0.979767 33.4207 -26.7564 -5.02422 -11.757 0.0 0.0 -0.0 0.0 -0.0 33.3633 20.2755 4.17229 -25.3799 -0.193125 -3.85825 26.8278 -11.0728 3.55102 8.0732 -0.0 -0.0 0.0 0.0 0.0 
4036.65 692.829 -253.743 -23.0169 37.532 12.9587 6.46451 -0.0396379 -0.832518 6.4649 0.0134158 -0.833353 6.46423 0.0956693 -0.827953 6.46327 -0.0362864 -0.832671 -12.5473 13.3335 4.28057 -12.8164 22.6491 8.04908 -0.0 0.0 -0.0 1.39202 19.0349 4.3044 -21.281 -25.6625 66.8622 1.669 -39.5798 0.600579 18.4686 0.276915 -2.33274 -0.246049 17.5284 5.62284 -0.0 0.0 -0.0 6.00067 -3.91818 -11.6558 54.7457 -67.2288 -17.7769 0.269955 7.61702 -0.0179707 36.0593 0.160316 4.52842 4.72551 -13.507 -38.318 0.0 0.0 0.0 38.064 50.44 -21.3749 -11.9606 0.304801 1.80691 32.4531 -29.128 -5.05127 -12.9099 0.0 0.0 -0.0 0.0 -0.0 34.8704 18.8193 3.63941 -35.0703 0.183288 -5.29597 31.2698 -7.94717 4.0246 9.31956 -0.0 -0.0 0.0 0.0 0.0 
4038.26 691.967 -265.868 -23.7244 40.1116 13.1238 6.48368 -0.236556 -0.704572 6.48393 -0.191244 -0.718196 6.48598 -0.119662 -0.733525 6.48531 -0.234004 -0.705424 -11.9789 14.949 7.61776 -12.1218 23.5064 11.5546 -0.0 0.0 -0.0 0.120485 16.6666 2.14332 -19.6036 -24.9937 70.5985 1.46841 -36.0303 0.477569 19.6539 0.268838 -2.48393 -0.321563 16.5952 4.78672 -0.0 0.0 -0.0 6.84583 -5.45593 -13.2382 54.7506 -65.9767 -17.0213 0.296238 8.34862 -0.0216209 37.1317 0.208543 4.65678 4.30655 -11.668 -34.4083 0.0 0.0 0.0 35.9401 48.5654 -19.0824 -10.9918 0.29423 1.65864 30.4158 -27.5477 -4.71715 -13.6216 0.0 0.0 -0.0 0.0 -0.0 36.2214 22.5338 1.94926 -40.8541 0.521996 -6.11742 33.7728 -18.0187 4.37759 11.9179 -0.0 -0.0 0.0 0.0 0.0 
4039.17 689.842 -272.869 -24.1929 40.3077 13.9051 6.54966 0.0258345 -0.702142 6.54993 0.0704602 -0.699076 6.54874 0.138157 -0.688901 6.54808 0.0276269 -0.702074 -12.3914 14.6926 5.75267 -12.658 24.2874 9.82354 -0.0 0.0 -0.0 -0.872251 18.1075 0.793807 -24.6775 -29.6303 70.4791 1.72665 -40.538 0.637689 21.7819 0.246498 -2.75481 -0.0206232 16.6747 6.66858 -0.0 0.0 -0.0 6.86558 -4.08875 -13.2994 51.0227 -66.6913 -19.1461 0.287547 8.10699 -0.0203771 37.2109 0.212199 4.66622 4.55072 -11.9298 -36.4375 0.0 0.0 0.0 43.9349 48.4436 -24.0622 -18.5906 0.309749 2.82357 29.29 -29.5602 -4.69119 -16.3706 0.0 0.0 -0.0 0.0 -0.0 36.9701 22.3737 1.14176 -41.5216 0.566397 -6.20996 35.3893 -17.2809 4.53039 12.7021 -0.0 -0.0 0.0 0.0 0.0 
